<?xml version="1.0" standalone="no"?>
<!DOCTYPE svg PUBLIC "-//W3C//DTD SVG 20010904//EN"
 "http://www.w3.org/TR/2001/REC-SVG-20010904/DTD/svg10.dtd">
<svg version="1.0" xmlns="http://www.w3.org/2000/svg"
 width="1423.000000pt" height="1423.000000pt" viewBox="0 0 1423.000000 1423.000000"
 preserveAspectRatio="xMidYMid meet">
<metadata>
Created by potrace 1.16, written by Peter Selinger 2001-2019
</metadata>
<g transform="translate(0.000000,1423.000000) scale(0.100000,-0.100000)"
fill="#000000" stroke="none">
<path d="M6735 12179 c-1009 -80 -1958 -451 -2755 -1078 -424 -334 -825 -772
-1114 -1220 -173 -267 -360 -628 -469 -906 -443 -1129 -473 -2369 -84 -3520
198 -586 533 -1173 949 -1664 102 -121 374 -396 498 -505 711 -623 1529 -1023
2440 -1192 679 -126 1428 -109 2085 46 577 137 1063 341 1570 659 549 345
1060 831 1437 1368 788 1122 1088 2487 848 3848 -12 66 -41 202 -66 303 -303
1244 -1067 2326 -2144 3037 -724 477 -1522 751 -2405 825 -138 11 -643 11
-790 -1z m825 -135 c175 -15 229 -22 350 -44 36 -6 85 -15 110 -20 155 -27
392 -84 490 -117 41 -14 100 -31 130 -39 30 -8 113 -38 185 -65 71 -28 155
-60 185 -72 30 -11 85 -35 121 -54 37 -18 71 -33 76 -33 21 0 94 -61 116 -97
28 -46 47 -108 47 -154 0 -42 -23 -119 -46 -154 -44 -68 -176 -133 -246 -122
-18 3 -67 15 -108 26 -106 31 -243 60 -330 72 -485 65 -814 65 -1312 0 -87
-12 -274 -53 -363 -81 -33 -10 -80 -23 -105 -29 -67 -17 -122 -32 -145 -41
-11 -5 -27 -10 -35 -13 -8 -3 -32 -12 -52 -21 l-38 -16 -37 35 c-96 91 -287
181 -478 226 -66 15 -295 16 -366 0 -285 -62 -489 -189 -650 -404 -85 -114
-158 -278 -185 -412 -17 -86 -18 -300 -2 -394 14 -81 10 -92 -62 -175 -135
-156 -383 -547 -486 -766 -14 -30 -43 -91 -65 -135 -36 -74 -109 -254 -109
-269 0 -3 -9 -28 -21 -54 -32 -73 -36 -83 -49 -137 -15 -59 -62 -212 -96 -310
-28 -80 -67 -125 -137 -161 -149 -77 -317 -5 -386 164 -16 38 -11 138 14 277
9 50 20 110 24 135 30 162 80 366 104 422 8 18 19 51 25 73 28 103 88 266 150
405 61 140 238 477 267 510 29 33 73 119 93 182 23 71 31 211 12 223 -5 3 -10
16 -10 27 0 12 -16 54 -36 94 -26 53 -51 86 -95 124 -53 46 -157 100 -193 100
-27 0 -27 31 0 53 15 12 50 42 78 67 141 126 290 238 501 377 153 101 257 163
385 230 47 25 108 58 136 74 28 16 71 36 95 44 24 9 70 29 104 45 89 43 153
70 165 70 6 0 18 4 28 9 29 16 255 100 287 107 17 3 68 19 115 35 110 36 358
95 505 120 28 4 75 13 105 18 226 43 430 58 775 60 188 0 351 -5 465 -15z
m2205 -749 c132 -85 377 -260 452 -324 23 -20 76 -65 119 -101 102 -85 452
-436 529 -529 33 -40 78 -94 100 -119 62 -71 282 -374 293 -402 3 -8 23 -41
44 -72 21 -32 52 -83 70 -115 17 -32 36 -64 41 -71 30 -38 216 -416 265 -537
45 -111 121 -312 130 -345 6 -19 29 -93 51 -165 23 -71 50 -173 62 -225 11
-52 27 -122 34 -155 24 -103 57 -300 77 -465 16 -132 18 -962 2 -1100 -12
-107 -30 -152 -83 -209 -58 -63 -119 -91 -200 -91 -67 0 -85 5 -146 45 -99 63
-112 94 -131 308 -14 168 -23 240 -44 342 -6 28 -14 77 -20 110 -19 119 -69
328 -93 385 -3 8 -22 67 -40 130 -19 63 -47 142 -62 175 -15 33 -35 83 -45
110 -24 67 -157 340 -190 390 -15 22 -30 48 -33 58 -17 46 -214 341 -301 451
l-28 36 30 77 c53 134 57 155 56 358 0 205 -1 214 -64 369 -77 194 -187 338
-350 461 -62 47 -282 155 -345 169 -127 30 -407 31 -516 2 -59 -15 -163 -58
-261 -107 -50 -25 -62 -27 -85 -17 -16 6 -77 28 -138 49 -60 20 -137 47 -170
59 -33 12 -96 30 -140 40 -44 10 -107 25 -140 33 -246 63 -426 90 -710 107
-99 6 -207 12 -240 14 -33 2 -140 0 -239 -6 -208 -10 -241 -4 -327 65 -69 55
-99 118 -99 211 0 148 85 242 250 274 325 65 342 66 785 67 412 0 522 -7 695
-45 46 -11 171 -36 250 -51 25 -5 65 -14 90 -20 70 -18 218 -22 269 -8 191 51
323 222 336 434 2 33 4 61 4 63 2 5 139 -70 206 -113z m-3656 -241 c138 -32
265 -101 374 -203 44 -41 167 -193 167 -206 0 -3 16 -39 36 -81 101 -214 103
-481 5 -686 -16 -35 -34 -74 -39 -88 -32 -83 -210 -265 -320 -326 -37 -21 -82
-46 -100 -56 -18 -10 -74 -28 -125 -39 -189 -44 -453 -21 -582 50 -108 60
-131 74 -160 96 -46 35 -165 153 -165 164 0 6 -12 23 -26 38 -75 81 -164 348
-164 493 0 69 25 197 55 285 90 267 323 488 587 556 158 41 289 42 457 3z
m-2338 -476 c39 -9 65 -24 106 -62 76 -69 96 -113 96 -206 1 -82 -1 -85 -77
-205 -29 -44 -58 -93 -66 -110 -8 -16 -20 -38 -28 -47 -21 -26 -140 -263 -179
-358 -19 -47 -48 -113 -64 -147 -16 -34 -29 -66 -29 -72 0 -5 -16 -56 -36
-113 -53 -152 -104 -354 -145 -568 -48 -248 -50 -267 -56 -573 l-6 -298 -32
-25 c-18 -13 -35 -24 -39 -24 -4 0 -17 -10 -29 -21 -12 -12 -39 -34 -60 -50
-51 -37 -144 -140 -189 -209 -76 -116 -115 -208 -160 -385 -16 -62 -21 -301
-8 -354 26 -105 33 -130 60 -208 90 -262 320 -494 595 -598 113 -43 153 -53
234 -61 l76 -6 35 -50 c19 -28 48 -72 64 -97 15 -25 42 -63 59 -84 16 -22 41
-55 55 -75 13 -20 78 -101 144 -180 180 -215 472 -502 633 -622 18 -14 71 -53
117 -87 114 -86 170 -126 260 -184 177 -115 209 -294 77 -443 -47 -54 -111
-80 -196 -80 -70 0 -77 2 -230 78 -87 44 -177 92 -201 108 -24 16 -60 37 -80
47 -43 22 -175 108 -282 183 -279 197 -557 452 -788 726 -71 85 -104 112 -186
156 -121 64 -289 59 -405 -12 -28 -18 -55 -32 -60 -32 -11 0 -95 -90 -110
-118 -19 -35 -36 -26 -61 31 -51 116 -60 137 -60 144 0 5 -19 58 -43 118 -24
61 -48 128 -55 150 -6 22 -31 103 -55 180 -25 77 -52 181 -61 230 -9 50 -21
106 -26 125 -9 36 -20 89 -40 195 -7 33 -16 78 -20 100 -5 22 -16 123 -26 225
-13 149 -15 262 -11 595 5 399 12 510 47 695 6 30 15 80 20 110 6 30 14 73 19
95 6 22 13 54 16 70 42 205 51 240 75 300 4 11 18 54 29 95 29 101 60 198 76
235 7 17 23 57 35 90 66 180 268 604 324 679 13 17 27 40 30 52 7 23 86 148
163 258 26 38 56 83 67 100 10 17 33 49 51 71 18 22 59 76 93 120 59 79 140
173 244 288 104 113 180 142 299 115z m6092 -482 c29 -8 83 -25 118 -39 35
-13 72 -27 83 -31 71 -24 258 -184 323 -276 107 -151 163 -329 163 -508 -1
-122 -14 -197 -50 -287 -4 -11 -17 -44 -29 -73 -65 -168 -237 -343 -417 -428
-148 -68 -221 -85 -376 -85 -167 0 -212 11 -398 100 -152 72 -294 213 -374
371 -76 152 -96 234 -96 400 0 143 20 240 71 349 54 116 101 184 184 266 111
111 221 177 380 225 22 7 49 16 60 21 35 14 299 10 358 -5z m-3673 -1791 c5
-385 5 -390 28 -427 36 -58 82 -81 171 -85 65 -4 83 -1 120 19 89 46 85 26 91
481 l5 402 110 0 110 0 0 -395 c0 -350 -3 -402 -18 -454 -34 -110 -94 -177
-197 -218 -48 -20 -73 -23 -210 -23 -138 0 -161 3 -211 23 -112 45 -186 136
-208 257 -7 36 -11 207 -11 437 l0 379 108 -3 107 -3 5 -390z m1260 155 l0
-240 221 240 221 240 144 0 c79 0 144 -3 144 -8 0 -4 -32 -39 -71 -77 -39 -39
-129 -131 -200 -207 l-130 -136 204 -314 c112 -172 207 -319 211 -325 6 -10
-24 -13 -136 -13 l-143 1 -145 249 -145 250 -87 -88 -88 -87 0 -162 0 -163
-110 0 -110 0 0 533 c0 294 3 537 7 540 3 4 53 7 110 7 l103 0 0 -240z m3221
-37 c25 -17 58 -48 73 -68 28 -36 150 -270 176 -335 7 -19 30 -71 51 -115 20
-44 48 -114 62 -156 14 -41 37 -104 51 -140 23 -57 38 -109 93 -319 44 -168
71 -306 83 -420 5 -47 14 -128 19 -180 6 -52 15 -133 20 -180 5 -47 14 -97 20
-113 29 -74 54 -120 83 -152 41 -48 143 -119 193 -136 53 -18 257 -18 308 0
47 16 60 6 47 -34 -5 -17 -19 -75 -31 -130 -12 -55 -38 -154 -59 -220 -21 -66
-46 -147 -55 -180 -10 -33 -25 -78 -36 -101 -17 -39 -26 -61 -69 -183 -11 -29
-35 -85 -54 -125 -18 -39 -44 -96 -57 -126 -13 -30 -38 -80 -56 -111 -18 -31
-37 -68 -42 -83 -35 -89 -275 -470 -414 -656 -88 -117 -217 -274 -229 -278 -5
-2 -20 -20 -33 -40 -58 -86 -349 -367 -565 -546 -117 -98 -407 -311 -440 -324
-8 -3 -35 -20 -60 -37 -25 -17 -72 -46 -105 -64 -32 -18 -71 -41 -85 -50 -24
-17 -130 -72 -180 -94 -14 -6 -32 -17 -41 -25 -9 -7 -61 -33 -115 -56 -55 -24
-134 -60 -177 -80 -42 -20 -81 -36 -86 -36 -9 0 -90 -31 -156 -60 -22 -10 -74
-28 -115 -40 -41 -13 -122 -38 -180 -56 -98 -30 -146 -42 -375 -94 -122 -27
-183 -26 -248 5 -58 27 -91 58 -131 122 -23 37 -26 53 -26 126 0 77 2 86 35
139 41 66 87 96 235 153 151 59 439 206 575 293 133 86 150 97 226 152 225
163 319 243 518 441 173 174 318 349 449 544 15 22 31 43 37 47 5 4 69 8 142
8 159 0 229 12 330 56 17 8 34 14 37 14 18 0 152 72 211 114 175 125 314 314
387 526 49 143 49 481 0 635 -41 129 -148 301 -253 407 l-76 76 0 304 c0 168
-5 342 -12 391 -6 48 -16 126 -21 175 -6 48 -15 105 -20 127 -5 22 -19 96 -30
165 -25 143 -51 253 -84 354 -13 39 -29 94 -36 121 -12 52 -58 179 -91 252
-44 99 -50 213 -15 282 24 46 91 110 139 132 34 16 59 19 127 16 77 -3 90 -6
131 -34z m-6706 -657 c118 -22 257 -88 368 -173 58 -45 162 -156 187 -201 9
-15 32 -56 52 -92 39 -69 78 -193 78 -247 0 -17 5 -54 12 -82 20 -87 -22 -320
-77 -425 -64 -124 -81 -150 -144 -218 -179 -194 -389 -287 -649 -288 -93 0
-141 5 -199 21 -228 61 -402 184 -530 374 -61 91 -79 133 -109 246 -48 184
-34 410 38 577 26 63 99 171 159 238 62 69 177 159 234 184 22 10 66 30 98 44
32 15 88 33 125 40 89 18 270 19 357 2z m1890 -1260 c123 -32 217 -107 266
-211 43 -89 43 -90 -58 -114 -49 -11 -96 -21 -105 -23 -12 -2 -25 13 -45 52
-40 78 -91 111 -180 117 -87 7 -157 -21 -208 -80 -56 -65 -70 -122 -70 -277 0
-171 18 -233 85 -301 54 -54 114 -74 196 -66 95 10 152 60 192 170 9 26 21 47
27 47 6 0 55 -14 108 -31 113 -35 109 -25 51 -146 -73 -152 -211 -233 -399
-233 -299 0 -494 216 -495 548 -1 340 193 560 495 561 50 1 113 -5 140 -13z
m1260 0 c123 -32 217 -107 266 -211 43 -89 43 -90 -58 -114 -49 -11 -96 -21
-105 -23 -12 -2 -25 13 -45 52 -40 78 -91 111 -180 117 -87 7 -157 -21 -208
-80 -56 -65 -70 -122 -70 -277 0 -171 18 -233 85 -301 54 -54 114 -74 196 -66
95 10 152 60 192 170 9 26 21 47 27 47 6 0 55 -14 108 -31 113 -35 109 -25 51
-146 -73 -152 -211 -233 -399 -233 -299 0 -494 216 -495 548 -1 340 193 560
495 561 50 1 113 -5 140 -13z m1084 -358 c52 -197 96 -356 98 -354 2 2 46 163
97 357 l93 354 164 0 164 0 3 -537 2 -538 -105 0 -105 0 -1 403 0 402 -103
-400 -102 -400 -109 0 -109 0 -102 405 -102 405 -1 -407 -1 -408 -105 0 -105
0 0 533 c0 294 3 537 7 541 4 3 79 5 167 4 l160 -3 95 -357z m1885 47 c83 -15
178 -50 278 -105 94 -51 225 -174 295 -277 29 -42 86 -167 105 -227 38 -124
51 -309 27 -400 -26 -98 -34 -124 -61 -184 -15 -34 -28 -66 -28 -70 0 -4 -13
-25 -28 -47 -124 -183 -254 -292 -428 -359 -221 -85 -436 -87 -619 -7 -11 5
-45 19 -75 30 -64 25 -196 121 -257 187 -100 108 -159 214 -218 394 -28 83
-26 330 3 420 70 221 167 364 326 484 64 48 145 91 248 133 101 41 288 53 432
28z m-6981 -1077 c55 -17 77 -31 118 -73 28 -29 57 -63 66 -76 91 -133 608
-610 728 -672 17 -8 41 -27 54 -41 14 -14 28 -26 32 -26 5 0 48 -26 96 -57
278 -179 651 -352 953 -442 123 -37 126 -39 140 -95 26 -104 50 -164 101 -251
84 -147 181 -251 319 -344 259 -174 557 -224 850 -142 76 21 85 24 95 31 6 4
37 17 70 30 85 34 207 120 303 214 45 44 82 84 82 87 0 4 24 43 54 88 29 44
61 100 70 124 16 43 46 67 83 67 9 0 61 15 117 34 55 19 135 44 176 56 68 21
239 88 282 111 10 5 22 9 27 9 27 0 479 233 572 294 64 43 151 99 171 111 9 5
53 37 99 70 45 33 91 66 103 74 11 8 37 29 56 46 72 64 123 98 173 116 53 20
152 26 161 10 3 -4 18 -11 33 -14 49 -10 116 -70 147 -132 26 -51 28 -64 24
-133 -5 -90 -18 -118 -88 -191 -28 -30 -54 -59 -58 -65 -11 -18 -283 -266
-358 -327 -38 -31 -90 -71 -116 -88 -26 -18 -50 -36 -53 -41 -7 -11 -291 -200
-301 -200 -4 0 -15 -7 -24 -15 -14 -13 -58 -38 -245 -138 -77 -42 -287 -137
-345 -157 -127 -43 -233 -135 -288 -249 -66 -137 -45 -340 47 -455 17 -22 30
-44 28 -50 -8 -23 -104 -27 -597 -23 -522 4 -549 6 -755 47 -27 6 -72 14 -100
19 -146 25 -364 77 -485 115 -58 18 -139 43 -180 56 -41 12 -93 30 -115 40
-22 10 -67 28 -100 40 -172 63 -557 246 -660 315 -17 10 -48 28 -70 40 -53 27
-206 126 -345 223 -280 196 -645 525 -850 767 -214 253 -258 312 -391 511
-124 186 -167 258 -230 382 -28 57 -31 70 -27 130 6 79 22 113 80 173 32 33
60 50 108 66 82 27 81 27 163 1z m3310 -359 c125 -18 229 -57 342 -128 96 -61
238 -203 275 -278 8 -15 22 -39 30 -53 22 -33 50 -105 62 -155 50 -212 49
-279 -1 -507 -12 -54 -81 -198 -105 -217 -9 -8 -16 -19 -16 -26 0 -24 -139
-162 -215 -213 -89 -61 -119 -77 -182 -97 -26 -9 -57 -20 -68 -24 -61 -26
-121 -34 -255 -33 -126 1 -155 4 -220 25 -132 44 -181 67 -269 127 -107 74
-200 178 -271 305 -56 102 -80 180 -99 328 -12 87 -11 93 20 290 23 141 160
358 295 466 197 158 437 226 677 190z"/>
<path d="M2458 3832 c-136 -86 -247 -160 -248 -164 0 -4 30 -54 66 -110 103
-160 146 -198 225 -198 88 0 166 78 157 156 -4 34 -3 35 26 28 76 -17 136 7
167 66 38 70 25 115 -83 282 l-63 98 -247 -158z m264 5 c85 -127 94 -175 41
-217 -33 -26 -73 -26 -106 0 -32 26 -125 172 -111 177 5 2 39 23 74 48 36 24
65 44 66 44 1 1 17 -23 36 -52z m-174 -194 c65 -107 57 -164 -25 -199 -55 -24
-86 -4 -154 97 -32 48 -59 92 -59 96 0 5 37 32 83 61 95 60 83 64 155 -55z"/>
<path d="M11577 3922 c-29 -30 -36 -77 -16 -114 12 -22 12 -22 -37 -2 -9 4
-39 -44 -32 -52 9 -8 360 -204 367 -204 6 0 31 43 31 55 0 2 -50 32 -111 67
-160 91 -197 140 -148 202 20 25 20 28 5 51 -21 32 -26 31 -59 -3z"/>
<path d="M11390 3599 c-124 -76 -132 -239 -17 -333 71 -57 103 -69 173 -64 52
3 70 9 101 34 79 64 108 167 70 242 -21 38 -31 40 -52 8 -13 -20 -14 -31 -4
-68 24 -87 -41 -156 -136 -146 -86 10 -85 18 20 158 67 90 91 128 83 137 -5 7
-29 21 -52 32 -57 28 -139 28 -186 0z m124 -49 c14 -5 26 -14 26 -20 0 -6 -30
-51 -67 -100 -72 -96 -78 -98 -109 -39 -20 39 -18 71 9 110 36 54 85 71 141
49z"/>
<path d="M2691 3326 l-161 -135 24 -27 24 -28 85 71 c114 97 154 123 189 123
29 0 78 -38 78 -61 0 -7 9 -9 28 -4 38 9 44 18 33 47 -16 44 -51 68 -95 68
l-41 0 25 19 c24 19 24 20 6 40 -11 12 -22 21 -27 21 -4 0 -80 -60 -168 -134z"/>
<path d="M11104 3261 c-42 -26 -73 -72 -82 -121 l-7 -40 -76 70 -76 69 -24
-25 -24 -26 140 -134 c77 -74 174 -166 216 -204 l76 -69 24 25 24 26 -102 97
c-111 106 -123 122 -123 176 0 29 8 45 35 72 31 31 40 35 68 29 32 -7 52 -23
187 -154 l76 -73 24 26 24 26 -94 95 c-152 152 -211 181 -286 135z"/>
<path d="M2944 3179 c-49 -45 -120 -112 -157 -147 l-68 -65 25 -25 25 -25 117
109 c64 60 136 126 158 146 l41 37 -26 26 -26 27 -89 -83z"/>
<path d="M3003 2979 c-76 -83 -139 -154 -140 -157 -1 -4 9 -16 24 -26 l26 -19
101 106 c56 58 113 111 128 116 62 23 138 -29 138 -95 0 -28 -16 -50 -105
-148 -58 -63 -105 -119 -105 -125 0 -6 11 -18 25 -27 24 -15 25 -15 83 48 132
143 150 164 167 197 44 88 -40 201 -151 201 -35 0 -36 1 -21 18 10 10 17 22
17 27 0 8 -31 34 -42 35 -3 0 -69 -68 -145 -151z"/>
<path d="M10723 3065 c-11 -33 -10 -42 7 -65 10 -15 26 -33 35 -40 14 -12 14
-15 -5 -35 l-20 -22 20 -18 c19 -17 21 -17 39 -1 18 16 23 12 125 -103 58 -66
116 -123 127 -126 31 -10 63 1 99 35 32 30 32 31 15 50 -22 24 -33 25 -57 3
-26 -24 -44 -12 -146 103 l-90 101 26 26 26 27 -20 20 -20 20 -24 -25 -25 -26
-50 57 -51 57 -11 -38z"/>
<path d="M10564 2778 c-60 -41 -89 -95 -88 -163 1 -118 117 -244 224 -245 42
0 127 38 157 71 43 47 62 119 47 176 -6 21 -7 21 -38 6 -30 -14 -32 -18 -32
-65 1 -45 -2 -53 -38 -85 -35 -33 -42 -35 -88 -31 -38 4 -57 12 -79 34 l-29
30 125 93 c69 51 125 96 125 100 0 16 -75 84 -106 97 -60 25 -126 18 -180 -18z
m167 -54 c10 -9 19 -21 19 -25 0 -10 -169 -139 -182 -139 -15 0 -30 54 -24 89
6 36 38 77 71 92 29 13 93 3 116 -17z"/>
<path d="M3434 2776 c-103 -45 -185 -217 -143 -299 35 -67 120 -118 172 -101
21 7 21 6 -4 -27 -36 -47 -87 -74 -124 -65 -16 4 -46 25 -68 47 -33 33 -39 44
-34 68 5 21 0 34 -17 50 -12 11 -25 21 -28 21 -13 0 -29 -71 -23 -99 16 -72
122 -151 204 -151 50 0 85 17 127 62 30 31 264 344 264 352 0 2 -12 11 -26 21
-24 16 -26 16 -39 -2 -13 -17 -14 -17 -20 2 -34 111 -140 165 -241 121z m157
-82 c15 -14 30 -41 33 -59 13 -66 -49 -165 -121 -197 -37 -16 -49 -17 -78 -8
-97 32 -99 156 -3 247 62 59 119 65 169 17z"/>
<path d="M10307 2586 c-14 -11 -16 -19 -9 -33 10 -17 6 -19 -43 -19 -64 0
-113 -29 -146 -87 -60 -107 25 -290 153 -329 72 -21 155 15 194 86 l22 39 21
-41 c12 -23 21 -54 21 -70 0 -73 -109 -138 -169 -100 -14 9 -26 8 -50 -2 l-32
-13 22 -23 c50 -54 121 -52 211 5 78 50 106 128 73 209 -24 57 -229 392 -240
392 -5 0 -18 -7 -28 -14z m44 -142 c35 -33 79 -118 79 -151 0 -32 -25 -78 -52
-97 -12 -9 -42 -16 -66 -16 -38 0 -48 5 -87 46 -79 80 -91 184 -27 235 39 30
112 23 153 -17z"/>
<path d="M3737 2409 c-59 -94 -110 -176 -113 -182 -2 -7 9 -20 25 -30 l28 -17
112 176 c61 96 111 179 111 183 0 7 -43 41 -52 41 -2 0 -52 -77 -111 -171z"/>
<path d="M3890 2303 l-103 -186 23 -19 c12 -10 26 -18 30 -18 5 0 36 51 70
113 73 130 101 164 146 173 63 12 133 -49 119 -103 -3 -16 -37 -85 -76 -154
-38 -70 -69 -129 -69 -132 0 -6 60 -31 64 -26 2 2 38 67 80 145 61 113 76 148
76 183 0 86 -80 148 -177 138 -52 -5 -52 -5 -38 17 14 20 13 23 -14 39 l-28
17 -103 -187z"/>
<path d="M9392 2296 c-112 -46 -206 -86 -209 -90 -3 -3 0 -19 7 -35 l12 -29
80 34 c44 19 85 34 92 34 7 0 56 -107 110 -239 l98 -239 29 10 c16 5 31 14 34
19 3 4 -37 113 -90 240 -52 128 -95 236 -95 240 0 4 40 24 90 44 l89 38 -15
28 c-8 16 -18 29 -22 29 -4 0 -98 -38 -210 -84z"/>
<path d="M9805 2311 c-54 -25 -84 -55 -107 -109 -25 -57 -18 -115 25 -196 69
-130 190 -160 305 -76 54 39 76 82 76 150 0 58 -34 141 -77 189 -53 58 -149
76 -222 42z m144 -70 c42 -30 81 -114 81 -173 0 -111 -124 -160 -205 -81 -37
37 -68 109 -68 158 0 103 107 156 192 96z"/>
<path d="M4395 2222 c-113 -54 -178 -218 -126 -319 32 -63 74 -88 148 -88 39
0 63 -4 63 -11 0 -23 -61 -94 -86 -100 -60 -15 -154 39 -154 89 0 31 -48 67
-61 46 -16 -25 -9 -75 14 -109 49 -74 197 -113 264 -71 18 11 43 37 56 58 25
39 187 396 187 411 0 5 -12 14 -27 21 -26 12 -42 3 -43 -24 0 -5 -9 4 -19 21
-48 79 -141 111 -216 76z m151 -86 c29 -29 34 -41 34 -79 0 -89 -82 -197 -149
-197 -14 0 -41 9 -59 20 -57 35 -67 102 -28 185 49 107 136 137 202 71z"/>
<path d="M4971 1889 c-46 -154 -82 -281 -80 -283 2 -1 62 -20 133 -41 198 -58
273 -49 323 41 37 63 29 127 -20 181 -11 13 -19 24 -16 25 2 2 17 10 34 18 94
48 99 187 10 246 -25 16 -264 94 -288 94 -7 0 -48 -120 -96 -281z m330 135
c31 -15 39 -32 39 -80 0 -41 -37 -84 -72 -84 -41 0 -209 53 -205 64 2 6 14 45
27 87 l22 77 82 -25 c44 -14 93 -31 107 -39z m-76 -236 c45 -23 65 -51 65 -90
0 -21 -7 -50 -16 -63 -17 -26 -74 -49 -101 -41 -150 43 -192 58 -188 69 2 7
16 51 30 99 l26 86 82 -25 c45 -14 91 -30 102 -35z"/>
<path d="M8810 1930 c-85 -29 -122 -85 -104 -158 16 -61 49 -76 174 -80 92 -4
112 -7 126 -23 40 -44 -26 -109 -109 -109 -29 0 -46 7 -67 28 -28 28 -28 28
-61 11 l-34 -17 42 -41 c39 -39 43 -41 102 -41 128 0 224 81 207 173 -13 70
-70 97 -206 97 -47 0 -91 4 -98 9 -21 13 -10 62 18 83 38 28 103 28 133 0 21
-20 28 -21 51 -11 14 7 26 17 26 24 0 19 -44 55 -81 65 -45 13 -55 12 -119
-10z"/>
<path d="M5510 1813 c-7 -32 -20 -95 -31 -141 -26 -112 -25 -172 3 -207 43
-56 144 -72 206 -35 l34 21 -7 -30 c-6 -27 -3 -31 20 -37 15 -4 30 -3 34 2 9
11 94 404 88 410 -2 2 -17 6 -33 10 l-30 6 -27 -122 c-33 -147 -47 -183 -82
-206 -54 -35 -138 -11 -151 43 -4 15 6 86 25 175 18 83 31 151 29 153 -2 1
-17 6 -35 9 l-31 7 -12 -58z"/>
<path d="M8375 1821 c-112 -51 -145 -189 -77 -323 44 -87 115 -119 218 -98 63
13 119 56 140 107 23 54 19 65 -23 61 -30 -2 -39 -7 -41 -25 -5 -34 -54 -81
-94 -88 -47 -9 -102 15 -128 57 -36 59 -34 61 126 93 80 17 150 32 155 36 16
10 -28 112 -63 146 -58 56 -137 69 -213 34z m134 -54 c25 -12 68 -74 59 -83
-12 -11 -229 -51 -234 -43 -9 16 15 85 38 106 39 35 93 43 137 20z"/>
<path d="M6005 1760 c-35 -14 -66 -57 -72 -97 -8 -57 32 -99 141 -147 86 -39
103 -57 91 -95 -13 -43 -107 -52 -161 -16 -14 9 -27 29 -31 45 -5 27 -9 30
-44 30 -45 0 -47 -7 -20 -67 25 -53 81 -84 166 -90 99 -7 170 46 170 127 0 54
-32 83 -148 140 -98 48 -113 66 -80 102 37 41 163 8 163 -44 0 -14 8 -18 38
-18 37 0 38 1 34 30 -9 64 -92 111 -189 109 -21 0 -47 -4 -58 -9z"/>
<path d="M7918 1740 c-49 -26 -68 -56 -68 -106 0 -77 39 -104 178 -124 93 -13
112 -23 112 -60 0 -43 -40 -70 -106 -70 -47 0 -55 3 -81 33 -25 31 -31 33 -61
25 l-33 -9 22 -38 c30 -54 65 -71 141 -71 116 1 188 53 188 137 0 85 -29 105
-177 127 -102 16 -126 29 -116 67 8 30 44 49 98 51 41 2 50 -1 69 -25 19 -23
27 -26 54 -21 18 4 32 8 32 11 0 19 -36 66 -60 78 -42 22 -146 19 -192 -5z"/>
<path d="M6366 1693 c-3 -16 -13 -108 -22 -206 -18 -193 -18 -196 32 -197 20
0 22 10 38 168 9 92 19 188 23 215 l6 47 -36 0 c-31 0 -36 -4 -41 -27z"/>
<path d="M7545 1711 c-68 -17 -105 -60 -105 -124 0 -66 40 -95 163 -121 97
-20 117 -30 117 -61 0 -94 -180 -98 -211 -6 -3 7 -15 8 -34 2 -34 -9 -36 -29
-6 -71 55 -78 212 -81 288 -5 28 28 33 40 33 80 0 83 -23 102 -155 129 -114
24 -125 30 -125 66 0 23 7 33 30 45 49 25 97 20 132 -16 25 -24 36 -29 59 -24
36 8 37 25 3 64 -37 45 -110 61 -189 42z"/>
<path d="M6547 1703 c-3 -5 -7 -71 -11 -148 -4 -77 -9 -170 -12 -206 l-6 -67
36 -4 c20 -2 36 -4 36 -3 1 0 5 64 10 141 11 190 31 227 122 227 27 0 47 -8
65 -24 l25 -24 -6 -167 -7 -168 34 0 34 0 7 77 c12 143 7 286 -10 311 -42 60
-165 75 -223 26 l-31 -26 0 25 c0 17 -7 27 -22 31 -30 8 -36 7 -41 -1z"/>
<path d="M7082 1674 c-86 -43 -127 -143 -103 -256 22 -104 76 -155 174 -165
91 -9 160 25 197 97 l19 38 -37 6 c-25 4 -38 2 -41 -7 -2 -6 -19 -27 -38 -46
-31 -31 -37 -33 -83 -29 -29 3 -59 13 -71 24 -25 22 -49 74 -49 104 0 19 6 20
161 20 l162 0 -6 49 c-6 54 -34 116 -64 143 -29 26 -88 48 -131 48 -21 0 -61
-12 -90 -26z m154 -53 c29 -18 64 -84 51 -97 -2 -3 -57 -7 -121 -11 -112 -6
-116 -5 -116 14 0 28 40 85 70 100 36 18 80 16 116 -6z"/>
</g>
</svg>
